<svg width="162" height="154" viewBox="0 0 162 154" fill="none" xmlns="http://www.w3.org/2000/svg">
<g filter="url(#filter0_d_18_337)">
<path d="M45.0001 63.011C35.0171 63.011 26.9241 54.9301 26.9241 44.9628C26.9241 34.9943 35.0171 26.9139 45.0001 26.9139C54.9829 26.9139 63.0756 34.9943 63.0756 44.9628C63.0756 54.9301 54.9829 63.011 45.0001 63.011ZM45.0001 20C31.1929 20 20 31.1766 20 44.9628C20 58.7483 45.0001 91 45.0001 91C45.0001 91 70 58.7483 70 44.9628C70 31.1766 58.8076 20 45.0001 20Z" fill="white"/>
<path d="M111 96.4737C98.6212 96.4737 88.5859 86.4271 88.5859 74.0352C88.5859 61.6418 98.6212 51.5957 111 51.5957C123.379 51.5957 133.414 61.6418 133.414 74.0352C133.414 86.4271 123.379 96.4737 111 96.4737ZM111 43C93.8792 43 80 56.8954 80 74.0352C80 91.1741 111 131.271 111 131.271C111 131.271 142 91.1741 142 74.0352C142 56.8954 128.121 43 111 43Z" fill="white"/>
<path d="M45 102C45 131 45 131 89 131" stroke="white" stroke-width="5" stroke-linecap="round"/>
</g>
<defs>
<filter id="filter0_d_18_337" x="0" y="0" width="162" height="153.5" filterUnits="userSpaceOnUse" color-interpolation-filters="sRGB">
<feFlood flood-opacity="0" result="BackgroundImageFix"/>
<feColorMatrix in="SourceAlpha" type="matrix" values="0 0 0 0 0 0 0 0 0 0 0 0 0 0 0 0 0 0 127 0" result="hardAlpha"/>
<feOffset/>
<feGaussianBlur stdDeviation="10"/>
<feComposite in2="hardAlpha" operator="out"/>
<feColorMatrix type="matrix" values="0 0 0 0 0 0 0 0 0 0 0 0 0 0 0 0 0 0 0.7 0"/>
<feBlend mode="normal" in2="BackgroundImageFix" result="effect1_dropShadow_18_337"/>
<feBlend mode="normal" in="SourceGraphic" in2="effect1_dropShadow_18_337" result="shape"/>
</filter>
</defs>
</svg>
