<svg width="138" height="149" viewBox="0 0 138 149" fill="none" xmlns="http://www.w3.org/2000/svg">
<g filter="url(#filter0_d_18_340)">
<path d="M69.7474 73.4737C57.3684 73.4737 47.3332 63.4271 47.3332 51.0352C47.3332 38.6418 57.3684 28.5957 69.7474 28.5957C82.126 28.5957 92.161 38.6418 92.161 51.0352C92.161 63.4271 82.126 73.4737 69.7474 73.4737ZM69.7474 20C52.6265 20 38.7473 33.8954 38.7473 51.0352C38.7473 68.1741 69.7474 108.271 69.7474 108.271C69.7474 108.271 100.747 68.1741 100.747 51.0352C100.747 33.8954 86.8687 20 69.7474 20Z" fill="white"/>
<path d="M46.7472 96.5C10.2473 102 14.2473 126 69.7473 126C119.247 126 128.747 104 93.2473 96.5" stroke="white" stroke-width="5" stroke-linecap="round"/>
</g>
<defs>
<filter id="filter0_d_18_340" x="0.499939" y="0" width="136.569" height="148.5" filterUnits="userSpaceOnUse" color-interpolation-filters="sRGB">
<feFlood flood-opacity="0" result="BackgroundImageFix"/>
<feColorMatrix in="SourceAlpha" type="matrix" values="0 0 0 0 0 0 0 0 0 0 0 0 0 0 0 0 0 0 127 0" result="hardAlpha"/>
<feOffset/>
<feGaussianBlur stdDeviation="10"/>
<feComposite in2="hardAlpha" operator="out"/>
<feColorMatrix type="matrix" values="0 0 0 0 0 0 0 0 0 0 0 0 0 0 0 0 0 0 0.7 0"/>
<feBlend mode="normal" in2="BackgroundImageFix" result="effect1_dropShadow_18_340"/>
<feBlend mode="normal" in="SourceGraphic" in2="effect1_dropShadow_18_340" result="shape"/>
</filter>
</defs>
</svg>
