<svg width="104" height="168" viewBox="0 0 104 168" fill="none" xmlns="http://www.w3.org/2000/svg">
<g filter="url(#filter0_d_18_347)">
<circle cx="52" cy="84" r="29" stroke="white" stroke-width="6"/>
<path d="M36.01 122.601C48.2513 126.237 57.1903 126.49 68.8017 122.873C70.719 122.275 72.5 123.679 72.5 125.37V143.004C72.5 144.382 71.3831 145.5 70 145.5H35C33.6193 145.5 32.5 144.381 32.5 143V125.072C32.5 123.398 34.2019 122.064 36.01 122.601Z" fill="white" stroke="white" stroke-width="5" stroke-linejoin="round"/>
<path d="M68.99 45.3991C56.7487 41.7628 47.8097 41.51 36.1983 45.1275C34.281 45.7248 32.5 44.3207 32.5 42.6303V24.9964C32.5 23.618 33.6169 22.5 35 22.5L70 22.5C71.3807 22.5 72.5 23.6193 72.5 25V42.9283C72.5 44.6022 70.7981 45.9362 68.99 45.3991Z" fill="white" stroke="white" stroke-width="5" stroke-linejoin="round"/>
<path d="M52.0001 72C49.5 90.5 47.5 87.5 66.5 87.5" stroke="white" stroke-width="5" stroke-linecap="round"/>
</g>
<defs>
<filter id="filter0_d_18_347" x="0" y="0" width="104" height="168" filterUnits="userSpaceOnUse" color-interpolation-filters="sRGB">
<feFlood flood-opacity="0" result="BackgroundImageFix"/>
<feColorMatrix in="SourceAlpha" type="matrix" values="0 0 0 0 0 0 0 0 0 0 0 0 0 0 0 0 0 0 127 0" result="hardAlpha"/>
<feOffset/>
<feGaussianBlur stdDeviation="10"/>
<feComposite in2="hardAlpha" operator="out"/>
<feColorMatrix type="matrix" values="0 0 0 0 0 0 0 0 0 0 0 0 0 0 0 0 0 0 0.5 0"/>
<feBlend mode="normal" in2="BackgroundImageFix" result="effect1_dropShadow_18_347"/>
<feBlend mode="normal" in="SourceGraphic" in2="effect1_dropShadow_18_347" result="shape"/>
</filter>
</defs>
</svg>
